PathFileType	4	(X/Y/Z)	34_1_48_p1_0-488.trc
DataRate	CameraRate	NumFrames	NumMarkers	Units	OrigDataRate	OrigDataStartFrame	OrigNumFrames
60.0	60.0	5	27	m	60.0	183	489
Frame#	Time	RHip			RKnee			RAnkle			RBigToe			RSmallToe			RHeel			LHip			LKnee			LAnkle			LBigToe			LSmallToe			LHeel			Neck			Head			Nose			RShoulder			RElbow			RWrist			RThumb			RIndex			RPinky			LShoulder			LElbow			LWrist			LThumb			LIndex			LPinky			
		X1	Y1	Z1	X2	Y2	Z2	X3	Y3	Z3	X4	Y4	Z4	X5	Y5	Z5	X6	Y6	Z6	X7	Y7	Z7	X8	Y8	Z8	X9	Y9	Z9	X10	Y10	Z10	X11	Y11	Z11	X12	Y12	Z12	X13	Y13	Z13	X14	Y14	Z14	X15	Y15	Z15	X16	Y16	Z16	X17	Y17	Z17	X18	Y18	Z18	X19	Y19	Z19	X20	Y20	Z20	X21	Y21	Z21	X22	Y22	Z22	X23	Y23	Z23	X24	Y24	Z24	X25	Y25	Z25	X26	Y26	Z26	X27	Y27	Z27	
183	3.05	0.3892585263079985	0.4319042238955067	0.9342040034339177	0.40158816731473373	0.6446659418973929	1.3763236601171256	0.38660703795463286	0.7708172767109804	1.746270586381284	0.3383239510476801	0.5540478685073861	1.7808690709279038	0.4136990094943723	0.5855702924196745	1.7846539604533276	0.3512807871724016	0.884638174989557	1.8128738935328765	0.15048024748991648	0.4866542723886649	0.9441791622267598	0.1594281239538804	0.6251481403573842	1.3638680105106042	0.1604464874679494	0.7535618530613015	1.746627497811546	0.1929345989734956	0.5441700667689134	1.768322424182983	0.13333150424503942	0.6158254215354445	1.7915990130039645	0.1570328559489572	0.8226447399385801	1.8034527105590494	0.27275113739057416	0.46008079701708454	0.4209901095087135	0.3217005987507246	0.30011232456049886	0.21969678716051214	0.2830858236818556	0.28585514019031283	0.3380688037031097	0.40317007881973504	0.4043323425519362	0.454436963579183	0.41629392990944236	0.2007252010284289	0.5491270625415253	0.35675482914902507	0.2211095278893099	0.3908729118333998	0.30353181886042435	0.1770387397944144	0.3175120305691077	0.3350686046819286	0.19462517366742713	0.29368179987876036	0.32331589597792787	0.149190308681749	0.3419369448703175	0.13117726702832364	0.4377091615989562	0.4555271697672079	0.047937927980148454	0.2076711372400076	0.4945727376203807	0.11490711651426241	0.17330012511619883	0.3054276893754656	0.18173601439540676	0.20982120999314435	0.2584853591095048	0.18456388321737838	0.1925487294864585	0.22657926149823152	0.14543018924628587	0.1877857335905902	0.2390278063352861
184	3.066666666666667	0.3852836393752271	0.4460882934441587	0.9359034377779796	0.39617369513010153	0.6398911296405634	1.3714917237874558	0.3866582428433008	0.7705620508843339	1.7461293480080715	0.33785043060542147	0.5563447839476364	1.7771497816728883	0.4136420685133682	0.5860917796947767	1.784737887546055	0.35133960946492565	0.8844232644646506	1.8128064203487735	0.1460302791017169	0.48565919959431764	0.940119974195956	0.15848415639365002	0.6222792990298922	1.359787683131418	0.1612428467806223	0.7568934321860302	1.7523222779105956	0.18993082035989223	0.5603601539729414	1.7752201478128735	0.12949907618247736	0.6142151534569553	1.7878102316411193	0.1570188536491954	0.8228900321012184	1.8035053623251511	0.26974833498206746	0.44932497716790726	0.4221332146542391	0.32981033170935975	0.3166397563042782	0.22192838256156347	0.29053653219093417	0.30128361071348164	0.3349922697861642	0.40279632789702835	0.40531508161747576	0.4578538194113866	0.4203727178732046	0.20229239673316152	0.5491289711171884	0.36430323161275885	0.23148732248435497	0.3940052326928658	0.31067244776357034	0.1988299498673277	0.31533406688683624	0.3391126748876975	0.20666008912738468	0.29128691091275327	0.3781927261112996	0.24796339568215317	0.32702740976042766	0.13123996530307183	0.4376460985848908	0.4553742828258602	0.04965729782793695	0.22078953445232616	0.49171584202007956	0.11744894250226999	0.18234039071682911	0.29814270795669684	0.18325891930688956	0.20709599117207417	0.25379039483048316	0.18571915626135987	0.1898508762034696	0.22624550855201261	0.14912508540079794	0.17575097147922977	0.23055999238951325
185	3.0833333333333335	0.3890845281858341	0.43177873343750695	0.9340447642052112	0.3970674863297886	0.6422678656430236	1.3760246073263027	0.38654094439170517	0.7708017265394919	1.746182873872377	0.3384473329746465	0.5548896835436706	1.7810349529360268	0.4102432003737214	0.5730757405512149	1.780108142627131	0.3512594146542133	0.8845301746867227	1.8129029524412872	0.14328577728241057	0.4722897130590687	0.9390835050536982	0.15851626893489296	0.6219469003754619	1.3592127122014102	0.16126839410123783	0.7570270472467009	1.7524376501068275	0.1936369096783744	0.5473357909536881	1.7736495698167785	0.12847829298917132	0.6160304204974998	1.7920229542815715	0.15701321287882075	0.8229269645503606	1.8036596685060056	0.2745882764493657	0.435649697453474	0.42922934943462854	0.332389340723071	0.32549937356895403	0.218642643134958	0.294148697929618	0.3126913366439042	0.33663447737256175	0.4069742293303608	0.39143169512108134	0.46198887082889717	0.428137601101426	0.21420200512392118	0.548559353006592	0.36448038146897366	0.23004972682416555	0.3906614032782159	0.311364763808187	0.1754487383147525	0.316306281223659	0.3434250698377183	0.20784926501332554	0.29387388013215415	0.3805121885441995	0.2104958574907659	0.33338258786769653	0.1290931144168424	0.42370080182521674	0.45611292196683473	0.05003223236863526	0.2200854268272648	0.489504249165085	0.1256077528562096	0.17348177610045976	0.29511749583518987	0.18859885214114816	0.20605392795306723	0.24961713390805665	0.19382968972765202	0.1823860678104933	0.22590079583696718	0.15098288131308674	0.1878883668068321	0.22876537550703993
186	3.1	0.3854660991755951	0.4194680281893041	0.9326205645122558	0.39621040874806673	0.6397687568875712	1.3716038953704857	0.3865824481306573	0.7705998033026441	1.7461001143625632	0.3384722062534583	0.5543413036505245	1.7809167248968087	0.4103317359146709	0.5722642487850844	1.7798460590449592	0.35242036541550453	0.8824764545728381	1.8071689741355657	0.14329569091097838	0.47208331351051513	0.9391267766818002	0.15509978125992133	0.6225392222598448	1.3639622152607125	0.16117409432016463	0.7567367281539661	1.7524438356098355	0.19363858008119728	0.5473981575320687	1.7737145636434273	0.13315851201778378	0.6168923385687997	1.7921553970743422	0.1569256390429371	0.8226978384967127	1.8036428526782464	0.27474841144158013	0.43927579917761944	0.4266209349496099	0.3527133149012518	0.30238695669030236	0.22938089773935297	0.30190894804877094	0.3279498436779508	0.3337438918429927	0.3998537460808334	0.3915998115770559	0.45921622901850995	0.42811487847055335	0.21397704822236244	0.5487114487406888	0.36839295889082824	0.24360506742741025	0.3928028280404042	0.3172367959914104	0.1962995330005096	0.3174243882251152	0.3508252251141286	0.21956178985062286	0.2928211873007739	0.37130123960045786	0.1789256666055511	0.34777892983967984	0.1263206437611205	0.4105611155033695	0.45272572039815756	0.04938996951739152	0.22162686032454204	0.48762742969739165	0.1324600399410239	0.17481262066573447	0.30105976855595185	0.19530837655773273	0.2070033021693907	0.2532140777196916	0.20010607266561614	0.1853886435041721	0.22740225717053736	0.1510033956523659	0.1885216937700098	0.23077152321187694
187	3.1166666666666667	0.38154921823925153	0.4332133655582195	0.9344243225458018	0.3924305563029216	0.6263950705006568	1.3687067345799122	0.38664285351434347	0.7705832594470707	1.7460148894742202	0.3385236111065725	0.5541931333484404	1.7809132143818183	0.41041921275690824	0.5723235461356136	1.7798524089577545	0.35253057369347013	0.8825498334472069	1.806859877860549	0.14324400706956825	0.47219487499269447	0.9388794841395716	0.15844005732314914	0.6221177131078757	1.3594973044870848	0.1611678576436019	0.7566786880797846	1.7524099787212832	0.19362386838710283	0.5474021541877168	1.7736539937631837	0.13312034448957064	0.6170228619433107	1.792215575221098	0.15693275930315337	0.822666842621807	1.8035807317246246	0.28010632176433053	0.4173861064888647	0.4311178895382139	0.34685477738550674	0.2795792744894443	0.23217281859328925	0.2889645399446675	0.29364465641950954	0.34358214389882746	0.40373887580643353	0.3807750381182355	0.4668872068414369	0.4356730281650802	0.21341821848253853	0.5521625129140235	0.3723447771638662	0.2559683937031881	0.388577743980967	0.3266258597062189	0.2277180330516721	0.30388682021232777	0.340281641442828	0.19668247194521232	0.29495569905835245	0.3836757955822559	0.19733770597313324	0.33750015583286863	0.1267026355011676	0.4124423627317748	0.4562248806455975	0.04921753255404068	0.22214099608066068	0.48917202351411054	0.1389755951378846	0.18792990044556812	0.3064376759479358	0.22586054554096704	0.13830051417320646	0.2536554894087239	0.2073387914597808	0.18467390842375267	0.22574745898027937	0.15692300263107645	0.1885337664236267	0.24033335476820977
